<?xml version="1.0" encoding="UTF-8"?>
<svg version="1.1" xmlns="http://www.w3.org/2000/svg" width="360" height="360">
<path d="M0 0 C23.15243582 -0.64523182 44.55048952 7.65222712 61.58984375 23.078125 C79.00750454 39.6697376 88.31639164 62.10417846 88.9453125 86.12109375 C88.22844749 110.65380732 78.69138229 131.59257322 61.6953125 149.12109375 C45.19039344 164.59606467 22.9954268 172.58705896 0.484375 172.2734375 C-19.01493248 171.20834928 -37.43797315 164.96817898 -52.3046875 152.12109375 C-53.39136719 151.26644531 -53.39136719 151.26644531 -54.5 150.39453125 C-71.26000757 136.67118011 -80.38708698 115.48728724 -82.9921875 94.390625 C-84.96283655 73.77270928 -79.50828606 51.90364323 -66.8671875 35.30859375 C-65.69218195 33.90222648 -64.50463029 32.5062451 -63.3046875 31.12109375 C-62.71171875 30.38503906 -62.11875 29.64898437 -61.5078125 28.890625 C-48.0201523 12.69985935 -27.78117429 2.8035025 -6.9921875 0.37109375 C-4.66207023 0.21447931 -2.33204145 0.12253099 0 0 Z " fill="#F6921F" transform="translate(177.3046875,93.87890625)"/>
<path d="M0 0 C23.15243582 -0.64523182 44.55048952 7.65222712 61.58984375 23.078125 C79.00750454 39.6697376 88.31639164 62.10417846 88.9453125 86.12109375 C88.22844749 110.65380732 78.69138229 131.59257322 61.6953125 149.12109375 C45.19039344 164.59606467 22.9954268 172.58705896 0.484375 172.2734375 C-19.01493248 171.20834928 -37.43797315 164.96817898 -52.3046875 152.12109375 C-53.39136719 151.26644531 -53.39136719 151.26644531 -54.5 150.39453125 C-71.26000757 136.67118011 -80.38708698 115.48728724 -82.9921875 94.390625 C-84.96283655 73.77270928 -79.50828606 51.90364323 -66.8671875 35.30859375 C-65.69218195 33.90222648 -64.50463029 32.5062451 -63.3046875 31.12109375 C-62.71171875 30.38503906 -62.11875 29.64898437 -61.5078125 28.890625 C-48.0201523 12.69985935 -27.78117429 2.8035025 -6.9921875 0.37109375 C-4.66207023 0.21447931 -2.33204145 0.12253099 0 0 Z M-54.3046875 33.12109375 C-54.98273438 33.80042969 -55.66078125 34.47976562 -56.359375 35.1796875 C-69.57156766 49.30205343 -75.7164035 68.95650591 -75.51171875 87.9921875 C-74.6187766 111.17033609 -63.74719419 130.58430358 -47 146.28125 C-31.29690287 159.64175395 -11.62057849 165.20761466 8.6953125 164.12109375 C29.37630003 161.86460963 49.27153124 152.33840591 62.6953125 136.12109375 C76.51165685 117.2994961 83.46054182 96.19809246 80.0703125 72.74609375 C75.59385887 51.52206887 63.63321392 33.44924355 45.6953125 21.12109375 C11.87480262 1.27048974 -26.75381964 5.20013961 -54.3046875 33.12109375 Z " fill="#F6901D" transform="translate(177.3046875,93.87890625)"/>
<path d="M0 0 C3.96 0 7.92 0 12 0 C12 3.3 12 6.6 12 10 C13.32 10 14.64 10 16 10 C16 6.7 16 3.4 16 0 C19.96 0 23.92 0 28 0 C28 3.63 28 7.26 28 11 C29.155 10.896875 30.31 10.79375 31.5 10.6875 C37.6437597 10.7200641 41.41383942 13.66695301 45.8359375 17.65625 C50.42445328 22.74023931 50.59617795 27.36774208 50.40625 34.046875 C50.01983591 36.85580818 49.35681291 38.55663366 48 41 C48.24957327 44.86838573 50.57831863 47.12425338 53 50 C55.45660624 54.91321248 54.68457187 62.25299187 53.38671875 67.4609375 C51.04662261 72.84212774 47.19875476 75.51271076 42 78 C37.36297289 79.5456757 32.87528349 79.05735628 28 79 C28 82.63 28 86.26 28 90 C24.04 90 20.08 90 16 90 C16 86.37 16 82.74 16 79 C14.68 79 13.36 79 12 79 C12 82.63 12 86.26 12 90 C8.04 90 4.08 90 0 90 C0 86.37 0 82.74 0 79 C-3.63 79 -7.26 79 -11 79 C-11 75.04 -11 71.08 -11 67 C-8.8034375 66.7834375 -8.8034375 66.7834375 -6.5625 66.5625 C-3.48153302 66.46504174 -3.48153302 66.46504174 -1 65 C-0.89889647 62.0546443 -0.86030721 59.1332244 -0.8671875 56.1875 C-0.86623077 55.30344482 -0.86527405 54.41938965 -0.86428833 53.50854492 C-0.86360649 51.63557871 -0.86546107 49.76261014 -0.86962891 47.88964844 C-0.87497711 45.01231612 -0.86968407 42.13513992 -0.86328125 39.2578125 C-0.86394203 37.44270799 -0.86522319 35.62760357 -0.8671875 33.8125 C-0.86516327 32.94584717 -0.86313904 32.07919434 -0.86105347 31.1862793 C-0.48739586 27.27996781 -0.48739586 27.27996781 -2 24 C-4.98889359 23.54234333 -7.98969648 23.29679049 -11 23 C-11 19.04 -11 15.08 -11 11 C-7.37 11 -3.74 11 0 11 C0 7.37 0 3.74 0 0 Z " fill="#FEFAF6" transform="translate(158,135)"/>
<path d="M0 0 C1.07282227 -0.00644531 2.14564453 -0.01289062 3.25097656 -0.01953125 C24.67984432 0.32322517 43.43135222 10.04053413 58.33447266 25.06494141 C72.30049937 39.87769944 79.12880011 59.50308112 78.89453125 79.62890625 C77.75938888 100.85392674 68.76943321 120.69472031 53.25 135.37890625 C34.99450109 150.48978416 13.54117414 157.36351982 -10.06640625 155.25390625 C-31.18411711 152.20112241 -49.03890229 140.17668966 -62.140625 123.66015625 C-73.80518012 106.68780896 -80.10750656 85.99062702 -76.8125 65.37109375 C-76.10654295 62.35874293 -75.25777158 59.44590661 -74.3125 56.5 C-73.96058594 55.3553125 -73.60867187 54.210625 -73.24609375 53.03125 C-69.09714557 40.43378358 -62.56947711 30.9141414 -53.3125 21.5 C-52.62542969 20.80003906 -51.93835938 20.10007812 -51.23046875 19.37890625 C-36.81624518 5.65998845 -19.5737438 0.11130932 0 0 Z M-47.3125 25.5 C-48.22902344 26.27730469 -48.22902344 26.27730469 -49.1640625 27.0703125 C-60.08282538 36.99192808 -68.66033196 53.09327947 -69.43554688 67.84082031 C-69.924926 83.93423428 -69.924926 83.93423428 -66.3125 99.5 C-65.94898437 100.51191406 -65.58546875 101.52382812 -65.2109375 102.56640625 C-58.23278616 120.55202857 -44.81071959 135.06659247 -27.125 142.9375 C-17.7004341 146.86160751 -9.08863265 147.84314956 1.0625 147.8125 C2.65191406 147.83666992 2.65191406 147.83666992 4.2734375 147.86132812 C14.8126921 147.867786 23.86514134 145.4882142 33.125 140.5 C33.84872803 140.11118652 34.57245605 139.72237305 35.31811523 139.32177734 C52.5734276 129.65207833 62.96000561 114.15182907 69.109375 95.66796875 C73.83026966 77.96461376 71.24366839 58.76228338 62.6328125 42.82421875 C52.03291465 24.71073869 36.0864937 14.89687547 16.6875 8.5 C-6.54393339 3.07713449 -29.80156047 9.75911934 -47.3125 25.5 Z " fill="#FEF8F1" transform="translate(179.3125,102.5)"/>
<path d="M0 0 C4.23023155 -0.13491171 8.45616484 -0.23410046 12.6875 -0.3125 C14.48477539 -0.3753418 14.48477539 -0.3753418 16.31835938 -0.43945312 C26.23822434 -0.5776128 26.23822434 -0.5776128 29.29296875 2.33203125 C31.4076 5.63704988 31.80170248 7.15182809 31 11 C29.34214208 13.59111432 28.63789047 14.58942419 26 16 C21.54970187 16.62649087 17.17028461 16.46924072 12.6875 16.3125 C11.46998047 16.28994141 10.25246094 16.26738281 8.99804688 16.24414062 C5.99817071 16.18531952 2.99892804 16.09564264 0 16 C0 10.72 0 5.44 0 0 Z " fill="#F6921F" transform="translate(170,186)"/>
<path d="M0 0 C3.58413652 -0.10788371 7.16503148 -0.18726305 10.75 -0.25 C11.76578125 -0.28351563 12.7815625 -0.31703125 13.828125 -0.3515625 C21.31981456 -0.45013736 21.31981456 -0.45013736 24.66796875 1.765625 C26.04341833 4.07283075 26.56770585 5.33460583 26.5625 8 C26.58441406 8.66 26.60632813 9.32 26.62890625 10 C25.56932562 13.36959803 24.06665934 14.27595769 21 16 C17.38077915 16.47835366 13.82991433 16.37720319 10.1875 16.25 C9.20845703 16.23195312 8.22941406 16.21390625 7.22070312 16.1953125 C4.81337997 16.14834034 2.40656257 16.07660146 0 16 C0 10.72 0 5.44 0 0 Z " fill="#F6911E" transform="translate(170,158)"/>
</svg>
